<?xml version="1.0" standalone="no"?>
<!DOCTYPE svg PUBLIC "-//W3C//DTD SVG 20010904//EN"
 "http://www.w3.org/TR/2001/REC-SVG-20010904/DTD/svg10.dtd">
<svg version="1.0" xmlns="http://www.w3.org/2000/svg"
 width="1157.000000pt" height="1157.000000pt" viewBox="0 0 1157.000000 1157.000000"
 preserveAspectRatio="xMidYMid meet">
<metadata>
Created by potrace 1.14, written by Peter Selinger 2001-2017
</metadata>
<g transform="translate(0.000000,1157.000000) scale(0.100000,-0.100000)"
fill="#000000" stroke="none">
<path d="M2087 9665 c-1 -2 -45 -5 -97 -9 -52 -3 -104 -8 -115 -10 -11 -2 -42
-7 -70 -11 -27 -5 -52 -9 -55 -10 -3 -1 -25 -5 -50 -9 -83 -15 -280 -85 -335
-119 -128 -79 -163 -105 -219 -162 -132 -134 -235 -349 -282 -590 -4 -22 -8
-42 -9 -45 0 -3 -5 -34 -9 -70 -4 -36 -10 -74 -12 -85 -10 -49 -16 -407 -18
-1135 -2 -432 -6 -798 -10 -815 -45 -192 -94 -294 -186 -385 -103 -103 -198
-140 -371 -145 -57 -1 -106 -3 -109 -4 -3 0 -5 -64 -5 -141 0 -118 2 -140 15
-141 253 -9 250 -8 338 -49 96 -45 180 -131 236 -243 26 -51 53 -119 61 -152
8 -33 17 -73 21 -90 4 -16 9 -424 10 -905 2 -795 8 -1202 18 -1270 2 -14 7
-48 10 -75 4 -28 13 -81 21 -120 81 -392 240 -621 530 -768 45 -22 215 -84
255 -92 206 -43 292 -54 478 -59 l92 -3 1 41 c2 129 0 238 -5 243 -3 3 -54 7
-113 8 -59 1 -126 6 -148 10 -154 30 -312 174 -376 344 -52 138 -52 139 -54
1116 -1 501 -5 939 -9 975 -18 191 -26 243 -62 380 -72 276 -187 476 -373 645
-83 76 -96 86 -183 144 l-86 59 50 32 c163 106 325 266 422 417 127 197 210
476 232 778 3 44 7 438 9 875 2 437 6 813 9 835 17 106 86 277 131 321 7 7 15
17 17 21 10 25 122 110 173 133 82 38 132 46 257 46 l108 -1 1 30 c2 106 -1
248 -6 253 -6 6 -122 11 -128 7z"/>
<path d="M9340 9522 l0 -147 108 1 c59 0 127 -4 152 -9 65 -13 179 -70 222
-112 49 -47 108 -119 108 -133 0 -6 4 -12 8 -14 14 -5 62 -134 79 -212 14 -61
17 -186 19 -871 1 -440 5 -831 7 -870 23 -326 119 -630 262 -830 102 -143 271
-302 408 -383 15 -9 27 -19 27 -23 0 -4 -24 -22 -52 -40 -114 -73 -267 -210
-350 -314 -78 -98 -157 -251 -202 -390 -39 -121 -56 -194 -72 -304 -4 -25 -8
-54 -10 -65 -13 -70 -17 -330 -20 -1116 -1 -492 -5 -906 -7 -920 -29 -158 -91
-290 -176 -375 -113 -113 -202 -147 -386 -150 l-120 -2 -3 -146 -3 -145 98 4
c320 12 545 59 737 155 230 115 364 272 461 539 28 78 69 252 79 330 3 25 8
65 11 90 13 104 15 240 16 1135 0 517 5 972 10 1010 28 209 126 388 265 485
69 49 156 72 279 75 61 2 115 4 120 4 7 1 10 50 9 139 -1 75 -2 140 -3 143 -1
3 -37 5 -82 5 -273 -3 -445 116 -543 375 -23 63 -29 87 -46 199 -4 30 -8 426
-9 880 -1 756 -4 980 -16 1036 -2 11 -7 45 -11 75 -3 30 -13 86 -21 124 -8 39
-16 80 -19 92 -9 45 -67 200 -100 267 -51 101 -89 153 -174 236 -129 126 -330
226 -535 266 -11 2 -42 8 -70 13 -97 19 -209 30 -352 35 l-103 4 0 -146z"/>
<path d="M4460 9639 c-23 -42 -85 -101 -130 -124 -90 -46 -186 -59 -460 -65
-365 -8 -698 -154 -961 -420 -167 -169 -297 -410 -315 -585 -3 -22 -7 -46 -10
-54 -6 -17 -5 -224 1 -266 2 -16 6 -46 9 -65 27 -209 113 -429 257 -658 57
-91 181 -266 228 -322 23 -28 22 -27 71 -90 19 -25 37 -47 40 -50 3 -3 41 -48
85 -100 44 -52 92 -108 106 -125 15 -16 79 -91 144 -165 204 -236 219 -253
230 -264 5 -6 36 -43 69 -81 32 -39 81 -95 108 -126 27 -31 85 -103 129 -160
44 -57 86 -111 92 -119 37 -47 134 -206 182 -301 56 -109 118 -278 129 -354 3
-22 10 -62 15 -90 5 -27 10 -59 10 -70 0 -11 0 -58 1 -105 5 -470 -268 -775
-685 -764 -38 1 -86 4 -105 8 -394 64 -731 516 -855 1146 -9 47 -18 92 -21
100 -3 12 -25 15 -126 14 l-123 -1 -3 -786 -2 -787 129 0 130 0 18 30 c34 58
121 100 207 100 53 0 104 -16 218 -69 136 -63 301 -109 451 -126 136 -16 392
-8 495 16 26 6 57 13 68 15 64 12 171 52 269 99 330 159 589 447 699 777 40
120 59 240 60 393 1 195 -11 314 -49 480 -55 244 -179 490 -394 785 -51 70
-229 299 -241 310 -3 3 -41 48 -85 100 -44 52 -92 108 -107 125 -38 43 -58 66
-103 121 -22 27 -47 55 -55 64 -8 9 -35 40 -60 70 -25 30 -50 60 -56 65 -6 6
-58 66 -116 135 -58 69 -119 141 -136 160 -282 323 -398 477 -477 635 -75 151
-97 238 -101 400 -3 119 -1 137 24 211 35 104 82 181 157 255 161 158 342 217
572 184 24 -3 44 -6 45 -5 10 3 125 -43 163 -66 65 -38 152 -127 214 -220 61
-91 179 -329 242 -489 24 -60 44 -111 45 -113 3 -5 238 59 246 66 3 4 -27 142
-68 307 -41 165 -76 309 -78 320 -2 11 -16 70 -31 130 -14 61 -28 117 -30 125
-10 45 -88 362 -99 405 l-13 50 -126 3 c-120 2 -127 2 -137 -19z"/>
<path d="M5676 9371 c-10 -16 -2 -263 8 -266 6 -2 45 -6 86 -9 130 -9 231 -46
283 -104 10 -11 29 -46 42 -77 l23 -57 0 -2255 c0 -2367 1 -2313 -42 -2378
-55 -84 -158 -126 -336 -139 -36 -2 -65 -5 -66 -5 0 -1 -1 -62 -1 -136 l0
-135 121 0 c702 -2 1745 1 1800 5 69 4 130 11 176 20 14 3 35 7 48 10 269 51
523 200 681 399 132 167 236 421 276 676 4 25 9 52 10 61 5 27 14 110 21 189
8 97 8 2753 0 2845 -10 118 -15 153 -32 253 -17 104 -44 216 -70 285 -8 23
-19 54 -23 68 -17 52 -104 216 -149 279 -175 245 -469 413 -797 455 -22 3 -56
8 -75 11 -45 8 -1980 13 -1984 5z m1870 -302 c234 -43 406 -260 442 -559 3
-30 6 -901 6 -1935 0 -1760 -1 -1885 -17 -1964 -54 -254 -188 -421 -387 -482
-68 -20 -95 -22 -344 -23 -149 -1 -277 0 -283 2 -10 3 -13 510 -13 2488 l0
2484 268 0 c150 0 295 -5 328 -11z"/>
</g>
</svg>
