<?xml version="1.0" standalone="no"?>
<!DOCTYPE svg PUBLIC "-//W3C//DTD SVG 20010904//EN"
 "http://www.w3.org/TR/2001/REC-SVG-20010904/DTD/svg10.dtd">
<svg version="1.0" xmlns="http://www.w3.org/2000/svg"
 width="2047.000000pt" height="2047.000000pt" viewBox="0 0 2047.000000 2047.000000"
 preserveAspectRatio="xMidYMid meet">
<metadata>
Created by potrace 1.14, written by Peter Selinger 2001-2017
</metadata>
<g transform="translate(0.000000,2047.000000) scale(0.100000,-0.100000)"
fill="#000000" stroke="none">
<path d="M5787 20334 c-1 -1 -42 -4 -92 -7 -153 -10 -192 -15 -425 -52 -14 -3
-75 -16 -136 -29 -379 -86 -752 -242 -1059 -443 -213 -139 -317 -225 -506
-413 -348 -348 -599 -758 -755 -1240 -34 -103 -88 -311 -99 -380 -3 -19 -8
-46 -10 -60 -11 -54 -13 -67 -20 -130 -4 -36 -8 -67 -10 -70 -16 -27 -20 -489
-20 -2215 0 -1784 3 -2097 19 -2181 3 -12 7 -37 10 -55 42 -264 165 -606 295
-819 11 -19 24 -42 28 -50 17 -37 131 -199 206 -292 322 -402 772 -703 1260
-844 65 -19 133 -36 150 -40 18 -3 50 -9 72 -14 22 -5 78 -14 125 -20 47 -6
103 -14 125 -17 22 -3 1424 -7 3115 -8 1691 -1 3090 -5 3108 -9 196 -40 337
-178 393 -386 16 -61 17 -174 14 -1775 -2 -940 -6 -1726 -9 -1745 -2 -19 -7
-57 -10 -84 -10 -81 -43 -219 -75 -314 -126 -375 -384 -664 -712 -798 -78 -32
-206 -71 -257 -79 -21 -3 -49 -8 -62 -10 -14 -3 -53 -8 -87 -11 -75 -8 -964
-11 -991 -4 -18 5 -19 54 -19 2210 l0 2205 -1026 0 -1027 1 0 -41 c-1 -22 -1
-1015 0 -2206 0 -2066 0 -2167 -17 -2170 -10 -3 -511 -4 -1113 -3 -1027 1
-1098 2 -1150 19 -156 51 -251 162 -295 345 -18 70 -19 144 -19 1155 l0 1080
21 70 c59 188 202 336 440 454 88 44 192 82 285 106 76 20 102 39 87 66 -9 18
-52 19 -1449 19 l-1440 0 1 -1598 c0 -1671 0 -1674 44 -1902 36 -188 118 -420
222 -624 180 -355 481 -694 808 -908 242 -158 569 -283 820 -313 33 -4 69 -10
80 -13 11 -3 610 -7 1330 -9 721 -1 1318 -3 1328 -3 17 0 18 -51 14 -1182 -1
-651 -6 -1192 -9 -1203 -3 -11 -9 -41 -12 -67 -34 -250 -168 -511 -361 -703
-154 -152 -397 -301 -538 -330 -45 -10 -57 -18 -63 -42 -5 -18 -2 -30 9 -38
12 -8 925 -11 3654 -9 2001 1 3670 4 3708 7 39 3 113 8 166 11 52 3 111 8 130
10 19 3 63 7 99 11 110 11 154 15 188 20 17 3 49 7 70 10 116 17 314 51 340
59 9 3 34 7 56 11 21 3 84 17 140 31 55 14 108 27 117 29 42 8 274 81 383 120
387 138 726 318 1027 546 46 34 86 65 89 68 3 3 34 31 70 60 248 209 517 535
697 846 204 353 382 843 456 1255 3 14 12 63 20 110 15 81 24 140 33 205 2 17
6 46 9 65 2 19 7 55 9 80 3 25 8 74 11 110 9 89 12 139 21 330 10 213 10 7958
0 8190 -11 256 -20 363 -51 595 -8 60 -39 250 -49 301 -66 326 -157 628 -269
889 -57 132 -192 390 -248 473 -16 23 -29 45 -29 48 0 3 -8 16 -17 29 -10 12
-25 33 -33 45 -293 439 -745 827 -1267 1088 -467 234 -1077 403 -1688 467 -33
3 -73 8 -90 10 -16 3 -66 7 -110 11 -44 3 -100 8 -125 11 -89 11 -7490 14
-7510 3 -20 -11 -26 -45 -12 -66 9 -14 32 -21 96 -29 122 -15 292 -68 408
-126 260 -131 407 -321 465 -604 4 -16 8 -569 9 -1227 3 -1127 2 -1198 -14
-1199 -87 -6 -2139 -3 -2177 4 -165 27 -281 109 -346 245 -58 119 -55 44 -54
1897 1 941 5 1724 8 1740 3 17 8 60 12 97 3 37 8 77 11 90 2 13 7 37 10 53 20
113 74 281 125 393 60 128 144 248 248 353 201 201 423 307 776 373 38 7 150
19 205 22 30 1 1148 3 2485 3 2653 1 2490 4 2608 -55 73 -37 111 -69 150 -123
69 -95 100 -257 73 -375 -35 -148 -155 -265 -358 -346 -54 -22 -80 -51 -63
-68 11 -11 2616 -9 2623 2 7 12 4 878 -4 961 -7 74 -9 91 -41 265 -46 259
-191 604 -356 850 -143 214 -342 413 -559 558 -42 29 -81 52 -87 52 -5 0 -11
4 -13 8 -5 14 -247 129 -351 167 -54 20 -141 47 -193 61 -96 26 -115 30 -169
39 -16 3 -37 8 -45 10 -8 2 -35 7 -60 10 -25 3 -56 8 -70 10 -53 8 -108 14
-190 21 -68 6 -5686 14 -5693 8z m7993 -5988 c179 -29 288 -50 368 -72 324
-87 583 -219 842 -429 72 -58 255 -253 321 -341 127 -169 235 -368 306 -561
39 -108 97 -322 107 -398 4 -27 9 -51 11 -55 2 -3 7 -37 10 -75 4 -38 10 -78
13 -90 10 -30 12 -8378 2 -8468 -12 -110 -20 -169 -26 -188 -2 -10 -6 -30 -8
-45 -10 -72 -61 -247 -103 -349 -45 -109 -64 -147 -124 -248 -248 -417 -667
-725 -1199 -882 -119 -35 -273 -72 -338 -80 -20 -3 -48 -7 -62 -9 -145 -28
-318 -35 -890 -36 -1991 -4 -3643 -4 -3649 0 -4 3 -8 377 -7 833 l0 827 45 0
c454 1 1336 10 1366 14 22 3 65 8 95 11 409 42 869 185 1215 378 508 283 913
702 1187 1227 70 134 176 389 203 490 3 8 18 58 34 111 16 53 32 109 35 125
38 185 66 339 71 391 3 35 8 74 11 86 15 80 18 473 18 2257 0 1787 -3 2109
-19 2185 -2 11 -6 34 -9 50 -21 146 -96 390 -173 563 -147 332 -358 620 -618
848 -160 139 -326 248 -527 343 -110 52 -328 134 -388 146 -12 2 -30 7 -40 10
-10 3 -27 8 -37 10 -10 2 -40 9 -68 15 -27 6 -65 13 -84 16 -18 2 -36 6 -40 8
-3 2 -31 7 -61 10 -30 4 -73 9 -95 12 -115 16 -342 20 -1190 19 l-931 0 0 678
-1 678 2191 -4 c1205 -2 2211 -7 2236 -11z"/>
</g>
</svg>
